<?xml version="1.0" encoding="UTF-8" standalone="no"?>
<!-- Generator: Adobe Illustrator 19.0.0, SVG Export Plug-In . SVG Version: 6.00 Build 0)  -->

<svg
   version="1.1"
   id="Layer_1"
   x="0px"
   y="0px"
   viewBox="0 0 365 354"
   xml:space="preserve"
   sodipodi:docname="cloudant-logo.svg"
   width="365"
   height="354"
   inkscape:version="1.1.2 (0a00cf5339, 2022-02-04)"
   xmlns:inkscape="http://www.inkscape.org/namespaces/inkscape"
   xmlns:sodipodi="http://sodipodi.sourceforge.net/DTD/sodipodi-0.dtd"
   xmlns="http://www.w3.org/2000/svg"
   xmlns:svg="http://www.w3.org/2000/svg"><defs
   id="defs929" /><sodipodi:namedview
   id="namedview927"
   pagecolor="#505050"
   bordercolor="#ffffff"
   borderopacity="1"
   inkscape:pageshadow="0"
   inkscape:pageopacity="0"
   inkscape:pagecheckerboard="1"
   showgrid="false"
   fit-margin-top="0"
   fit-margin-left="0"
   fit-margin-right="0"
   fit-margin-bottom="0"
   inkscape:zoom="2.582"
   inkscape:cx="182.61038"
   inkscape:cy="177.18823"
   inkscape:window-width="2460"
   inkscape:window-height="1563"
   inkscape:window-x="0"
   inkscape:window-y="0"
   inkscape:window-maximized="1"
   inkscape:current-layer="Layer_1" />
<style
   type="text/css"
   id="style920">
	.st0{fill:#72C7E6;}
	.st1{fill:#FFFFFF;}
	.st2{fill:#002C77;}
</style>
<g
   id="XMLID_1_"
   transform="translate(-67.5,-73)">
	<path
   id="XMLID_2_"
   class="st0"
   d="M 432.5,250 C 432.5,347.8 350.8,427 250,427 149.2,427 67.5,347.8 67.5,250 67.5,152.2 149.2,73 250,73 c 100.8,0 182.5,79.2 182.5,177" />
	<path
   id="XMLID_3_"
   class="st1"
   d="m 132.5,232 c 0,0 -7.4,-36.7 67.1,-45.1 3.1,-49.1 176.1,-50.2 132.9,12.3 32,11.1 26.8,33.3 26.8,33.3 0,0 1.3,12.6 -9.8,24 -11.1,11.5 -23,18.6 -60.1,18.6 -14.9,0 -36.1,0.7 -60.8,-10.6 -33.5,6.9 -69.9,0 -80.9,-8.4 C 129.2,242.2 132.5,232 132.5,232" />
	<path
   id="XMLID_4_"
   class="st2"
   d="m 132.5,232 v 56.8 c 0,0 3.8,51.4 97.3,31.1 37.2,27.3 122.9,9.8 129.5,-22.4 v -65 c 0.5,15.8 -73.2,59 -129,21.9 -83,18.5 -97.8,-22.4 -97.8,-22.4" />
</g>
</svg>
